PathFileType	4	(X/Y/Z)	Patient4_TMGait_0pt6_01_left_45.trc.trc
DataRate	CameraRate	NumFrames	NumMarkers	Units	OrigDataRate	OrigDataStartFrame	OrigNumFrames
77.348066298342	77.348066298342	4	33	mm	77.348066298342	124	       141
Frame#	Time	Sacral			L.Shoulder			Chest			R.Shoulder			Neck			R.ASIS			L.ASIS			R.Thigh.Superior			R.Thigh.Lateral			R.Thigh.Inferior			R.Patella			L.Thigh.Superior			L.Thigh.Lateral			L.Thigh.Inferior			L.Patella			L.Shank.Superior			L.Shank.Lateral			L.Shank.Inferior			R.Shank.Superior			R.Shank.Lateral			R.Shank.Inferior			R.Heel			R.Midfoot.Superior			R.Midfoot.Lateral			R.Toe			L.Heel			L.Midfoot.Lateral			L.Midfoot.Superior			L.Toe			L.Elbow			L.Wrist			R.Elbow			R.Wrist			
		X1	Y1	Z1	X2	Y2	Z2	X3	Y3	Z3	X4	Y4	Z4	X5	Y5	Z5	X6	Y6	Z6	X7	Y7	Z7	X8	Y8	Z8	X9	Y9	Z9	X10	Y10	Z10	X11	Y11	Z11	X12	Y12	Z12	X13	Y13	Z13	X14	Y14	Z14	X15	Y15	Z15	X16	Y16	Z16	X17	Y17	Z17	X18	Y18	Z18	X19	Y19	Z19	X20	Y20	Z20	X21	Y21	Z21	X22	Y22	Z22	X23	Y23	Z23	X24	Y24	Z24	X25	Y25	Z25	X26	Y26	Z26	X27	Y27	Z27	X28	Y28	Z28	X29	Y29	Z29	X30	Y30	Z30	X31	Y31	Z31	X32	Y32	Z32	X33	Y33	Z33	

124	56.280214285714	809.852666244615	998.904855754267	469.875436288442	955.894275804542	1431.417037432178	294.447940874975	1077.218268790668	1360.143110589557	440.528771488239	1010.240038347588	1425.958644321078	623.527685112324	950.040856701449	1484.728367479113	451.005922988253	1038.997102059330	927.875241964091	572.344150927611	1012.676143546068	954.347105430277	299.341099540922	1031.276696022260	714.658048277747	541.963122413365	923.436070353173	623.674551062010	602.265092232900	981.207234008683	557.423122652030	521.362661956201	957.945131007247	472.871779201102	523.797494266890	1090.665674578893	770.058368319065	325.702034088574	1036.148169997641	638.549027956945	257.132338066586	1142.480884927659	582.335440138441	314.912238086798	1164.138273384581	513.049236954116	315.970483137118	1144.956376829429	437.527220776765	308.883316342113	1069.648053712924	311.317799457385	262.882535180392	1148.711097365775	208.737823042287	321.568597019453	915.429494509539	389.469433299021	529.802403970330	825.538189395044	299.037786799895	589.111704453372	850.253376894657	199.513150869080	524.902787357645	693.857599430148	45.071645307928	489.122798685094	865.985918391797	96.343071869898	530.309466364328	774.535990205425	37.421075041911	565.767594091445	983.174419082983	38.593348513439	563.021191623702	1051.136447489674	40.056898018887	362.773714956187	1125.869042982169	38.898045654872	283.113077949436	1203.157178063477	107.882158833618	306.366862523864	1334.510167007979	64.340567246433	282.320401958322	853.179790042794	1094.370667446010	179.745974179974	837.950484811511	836.018075261282	172.761103206516	1138.294388031479	1107.713138497446	735.141192283580	1346.306356136068	1219.095488020408	658.317836741837	
125	56.293142857143	810.724523605021	997.690357193497	467.314283675342	955.575074916487	1430.057943005872	291.722369916835	1077.040353891176	1359.531467810594	437.993422567016	1009.618817330115	1425.087047709412	621.114847236508	949.883286089984	1483.788470914968	448.316076464501	1040.090342416896	926.701702889191	570.002057029089	1013.836134412093	953.352210462813	297.118834271500	1031.577329674620	713.298850566256	539.924554714531	923.059252639493	622.885823588867	600.309801316768	980.502199648734	555.975843116073	519.618399552363	956.438903371955	470.986711280376	521.952364057352	1091.980736312479	768.027782074167	324.767962308993	1036.335843857810	637.110121503379	256.810208603741	1141.824444851085	580.170206675536	315.513447850747	1161.956427317943	509.948671547584	317.187387379892	1141.959437514172	434.261558884721	309.806347714084	1064.854426621617	309.316818045007	263.099284505755	1140.972945171235	205.362578828106	323.233261713128	912.521992970073	388.281340023440	528.402411389728	821.575715221499	299.374763786282	588.356884080169	844.442339979621	199.294205582891	524.371992664502	686.080619106975	46.209623510928	489.503681489853	858.519175464257	96.393681066747	530.361694839418	766.831231531727	37.807869110784	565.906582125840	975.462669162476	38.379663284232	563.061739498287	1038.985361414315	39.212148229267	363.534302657352	1114.219240887313	37.204150992369	284.205799293019	1193.012195707635	103.997590153220	308.901378949459	1323.813623751225	57.721486615309	285.161960382198	856.687632998416	1091.810545236020	176.363843128337	845.432514499514	833.139840920805	168.215429823345	1133.185577624462	1104.502160103523	734.015620238029	1343.089037923412	1212.272731265352	656.451187011760	
126	56.306071428571	811.605355206115	996.981084532667	464.654939607167	955.464251505202	1429.209139645376	288.973612531317	1077.016616187193	1359.331694263797	435.451732191559	1009.139060115823	1424.618702134493	618.678332934520	949.883349869214	1483.302099728963	445.632011930769	1041.162525752847	925.959327162391	567.484054765635	1014.969754627883	952.836490570196	294.747639292041	1032.002538655144	712.378565709455	537.839146916477	922.913659051554	622.437716006157	598.267744809278	980.269161233117	554.876078480272	517.905897354572	955.542891555621	469.223289508879	520.321367802558	1092.950204582512	766.299479075854	323.715853665529	1036.242870829484	636.131936298413	256.099197639667	1140.698709304059	578.317068093119	315.867333728416	1159.407447206993	507.346922155590	318.042053036944	1138.787900670898	431.607126673310	310.349976391920	1060.321805296574	307.726048546348	262.847712333744	1133.719708622315	202.655228532411	324.424551699244	910.022682133855	387.380066761944	527.136779011804	817.826731761122	300.187205813676	587.643258773025	838.901183089229	199.481637403607	524.018058896012	678.383576737631	48.023854253875	489.988688497740	851.301811932779	96.547108055399	530.554780802129	759.198190514394	38.483669650134	566.093833473074	967.774770722374	38.140837133397	563.093802170086	1027.905448811957	38.573001446605	363.931970585880	1103.550035167041	36.020206195029	284.867888481651	1183.490709726407	101.030283601833	310.850274989327	1313.870020177011	52.674371136821	287.304636305589	860.744323743618	1089.655187857169	173.046286581514	854.022516964948	830.646512683403	163.720468495304	1127.229743980266	1101.296399664190	732.666603150792	1339.956148115408	1203.680986277408	654.686123563984	
127	56.319000000000	812.454359482701	996.850870230225	461.912271149139	955.594689678672	1428.948366334692	286.233059541670	1077.164963619653	1359.568342962876	432.924651605760	1008.852292645825	1424.626630444315	616.217759086535	950.046756637913	1483.317645201306	442.968319091181	1042.139325959900	925.716540938565	564.796775824797	1016.019459183699	952.854270791114	292.213315216480	1032.550911232006	711.966482249198	535.704118840944	923.079824664423	622.347123497174	596.165769339642	980.632543706810	554.170714420116	516.248259443405	955.436206199770	467.593756587462	518.989708126092	1093.519340781663	765.007101289047	322.454288389519	1035.802805109485	635.652897007162	254.992489854695	1139.061734208973	576.841519206244	315.853684784518	1156.452715818129	505.320067840621	318.458615322639	1135.403086783298	429.614164682398	310.495893601463	1056.004226310675	306.582150770922	262.161837474849	1126.958356414466	200.663380905169	325.141537927239	908.083523722746	386.786154338405	526.051469640455	814.407551071961	301.530196216387	586.987866859363	833.735515579478	200.127310002985	523.858740434789	670.826307012145	50.653453493715	490.563369506767	844.397669572448	96.826504265319	530.905056874690	751.662908287284	39.538063764771	566.327363977273	960.105450158930	37.885411539199	563.111168479885	1017.992975456279	38.149478349264	364.046413123867	1093.938501084798	35.308096849329	285.167674956468	1174.672265709332	98.982571848526	312.195123301321	1304.755285711401	49.201269340455	288.734875798136	865.278716016927	1088.031664982517	169.819959895323	863.658348946057	828.706561191086	159.321274048068	1120.449823314171	1098.256674937722	731.033514144142	1336.825095703003	1193.313178934824	653.026489879793	
